:SAMPLES-PER-SECOND 30
:FULLY-SPECIFIED
:DEGREES
1407
root  -51.9624 39.2893 7.12665 -46.5769 -85.0624 52.5148
RightUpLeg  -28.3124 -11.6386 -4.29267
RightLeg  23.5078 6.57568 2.90596
RightFoot  0.428358 0.0899453 -0.842686
RightToes  1.33877e-009 0 -3.6325e-017
Spine  34.3685 -5.78759 12.0342
Spine1  -0.278951 -0.283326 -13.5047
HEad  -38.4162 -10.9442 5.48845
LeftShoulder1  0.244289 -11.1258 7.74269
LeftArm  -54.3667 -72.2919 3.0123
LeftForeArm  -18.1514 -3.28514 0.969531
LeftHand  -0.0270605 7.09482 0.740025
RightShoulder  0.469311 4.25736 -2.74042
RightArm  -56.8411 66.9913 -14.1619
RightForeArm  -31.3756 -4.76513 -1.79885
RightHand  0.129337 3.29161 1.49199
LeftUpLeg  -23.8793 3.99197 4.17157
LeftLeg  10.1342 -12.5656 -2.1292
LeftFoot  8.65882 1.08781 -6.46078
LeftToes  -1.45701e-009 4.75788e-011 -4.21586e-011
1408
root  -51.8523 39.213 7.13616 -40.8766 -84.3252 45.9985
RightUpLeg  -27.9468 -13.0068 -4.56878
RightLeg  24.4693 6.99827 3.24619
RightFoot  0.00111897 0.0914874 -0.919814
RightToes  1.33877e-009 0 -3.6325e-017
Spine  34.2581 -6.23457 12.1627
Spine1  -0.49449 -0.82971 -13.4083
HEad  -38.6435 -10.6271 5.7638
LeftShoulder1  0.246351 -11.3545 7.7573
LeftArm  -52.5779 -72.4358 1.14896
LeftForeArm  -17.694 -3.07074 0.768299
LeftHand  -0.0403532 7.50633 -0.167864
RightShoulder  0.533464 4.12253 -1.65777
RightArm  -55.6302 67.3076 -12.2955
RightForeArm  -30.8978 -4.55847 -1.82566
RightHand  0.124506 3.85119 1.29684
LeftUpLeg  -24.23 3.99739 3.93119
LeftLeg  11.8833 -13.3018 -2.85419
LeftFoot  8.27947 1.16716 -7.03359
LeftToes  -1.45701e-009 4.75788e-011 -4.21586e-011
1409
root  -51.7714 39.1626 7.196 -41.3344 -84.1751 45.6138
RightUpLeg  -27.3475 -13.7685 -4.85084
RightLeg  24.9495 7.64741 3.64505
RightFoot  -0.261038 0.0722114 -0.762321
RightToes  1.33877e-009 0 -3.6325e-017
Spine  33.5328 -6.14335 12.1591
Spine1  0.207828 -0.868805 -12.9404
HEad  -38.951 -10.0612 5.52135
LeftShoulder1  0.312731 -11.6283 7.28899
LeftArm  -50.722 -72.488 -1.61844
LeftForeArm  -16.1223 -3.35347 0.903627
LeftHand  -0.027239 7.13924 0.724007
RightShoulder  0.569278 4.15952 -1.16252
RightArm  -53.5027 66.9751 -8.46859
RightForeArm  -30.2751 -3.11613 -2.12031
RightHand  0.0950623 3.98629 0.911598
LeftUpLeg  -23.9917 4.59562 3.83939
LeftLeg  13.3708 -12.5856 -3.10356
LeftFoot  6.42493 1.43683 -9.50641
LeftToes  -1.45701e-009 4.75788e-011 -4.21586e-011
1410
root  -51.6785 39.1184 7.34733 -43.6118 -84.2557 46.8311
RightUpLeg  -26.5239 -14.1085 -5.32027
RightLeg  25.351 8.19756 3.99009
RightFoot  -0.303734 0.0546862 -0.587557
RightToes  1.33877e-009 0 -3.6325e-017
Spine  32.979 -5.75762 11.3844
Spine1  0.620563 -1.10526 -11.0733
HEad  -38.6183 -9.11074 3.69001
LeftShoulder1  0.513161 -11.6418 5.77526
LeftArm  -47.8819 -72.2468 -4.97756
LeftForeArm  -15.43 -3.69767 0.785232
LeftHand  -0.0252377 7.02627 0.842073
RightShoulder  0.637615 4.39307 -0.422104
RightArm  -50.5322 67.0936 -4.43757
RightForeArm  -29.9122 -0.78192 -1.82126
RightHand  -0.0547158 4.39633 -0.92849
LeftUpLeg  -23.6105 5.83517 3.7369
LeftLeg  16.3583 -11.0088 -3.31458
LeftFoot  3.0089 1.52872 -12.1934
LeftToes  -1.45701e-009 4.75788e-011 -4.21586e-011
1411
root  -51.5758 39.1336 7.55049 -42.692 -84.3392 44.8732
RightUpLeg  -25.2524 -14.1277 -5.72904
RightLeg  24.8745 8.30108 3.95709
RightFoot  0.00905519 0.0210281 -0.211986
RightToes  1.33877e-009 0 -3.6325e-017
Spine  32.2114 -5.77759 10.9608
Spine1  0.928532 -1.4951 -9.96334
HEad  -37.4256 -7.83371 2.64551
LeftShoulder1  0.68214 -11.5741 4.47587
LeftArm  -44.6774 -71.6302 -9.32586
LeftForeArm  -13.8609 -4.08905 0.992274
LeftHand  -0.0372611 6.94751 0.0341454
RightShoulder  0.696539 4.38147 0.455982
RightArm  -44.4368 66.378 4.06055
RightForeArm  -29.1244 3.01668 -1.59211
RightHand  -0.27451 5.37932 -3.23801
LeftUpLeg  -23.1276 5.53935 4.27881
LeftLeg  20.3566 -8.90054 -3.3281
LeftFoot  0.0596398 1.08463 -10.7668
LeftToes  -1.45701e-009 4.75788e-011 -4.21586e-011
1412
root  -51.511 39.1777 7.79921 -44.4624 -84.562 45.8449
RightUpLeg  -24.0576 -14.1126 -6.21276
RightLeg  24.0575 8.66896 3.99055
RightFoot  0.39748 -0.0294741 0.313756
RightToes  1.33877e-009 0 -3.6325e-017
Spine  31.1051 -5.89308 10.3603
Spine1  1.28349 -1.90053 -9.44786
HEad  -36.5965 -6.95849 1.74887
LeftShoulder1  0.789391 -11.2826 3.54115
LeftArm  -41.0755 -70.1781 -14.9848
LeftForeArm  -12.7866 -5.20991 1.5397
LeftHand  -0.0357675 6.97487 0.225257
RightShoulder  0.759381 3.92401 2.03747
RightArm  -36.5408 64.8781 14.9678
RightForeArm  -29.4602 8.13495 -0.960111
RightHand  -0.562593 6.75077 -5.73799
LeftUpLeg  -22.1446 5.11904 5.02354
LeftLeg  24.1466 -7.39354 -3.27276
LeftFoot  -3.22714 0.586299 -8.02489
LeftToes  -1.45701e-009 4.75788e-011 -4.21586e-011
1413
root  -51.4542 39.198 8.12274 -48.2552 -84.9683 48.6132
RightUpLeg  -22.7171 -13.8013 -6.84134
RightLeg  23.402 9.03295 4.04048
RightFoot  0.695925 -0.0928213 0.924087
RightToes  1.33877e-009 0 -3.6325e-017
Spine  30.2749 -5.95105 9.77261
Spine1  1.14178 -2.26847 -8.81793
HEad  -35.8585 -6.67 1.20963
LeftShoulder1  1.04227 -10.7733 1.29668
LeftArm  -36.3635 -68.4093 -19.7591
LeftForeArm  -13.846 -6.74971 0.815211
LeftHand  -0.0218091 6.21715 1.3734
RightShoulder  0.856625 3.63849 4.03807
RightArm  -29.1836 61.369 25.821
RightForeArm  -27.3418 13.6729 0.373357
RightHand  -0.778775 7.93712 -7.11566
LeftUpLeg  -20.3616 4.29922 6.02379
LeftLeg  27.2632 -5.15177 -2.55633
LeftFoot  -5.64781 0.353864 -6.4641
LeftToes  -1.45701e-009 4.75788e-011 -4.21586e-011
1414
root  -51.3922 39.2255 8.48944 -52.9297 -85.4486 52.348
RightUpLeg  -21.3744 -13.3062 -7.46146
RightLeg  22.4767 9.30376 3.99327
RightFoot  1.15939 -0.171113 1.63317
RightToes  1.33877e-009 0 -3.6325e-017
Spine  29.1535 -5.53797 8.56479
Spine1  1.39042 -2.5501 -6.72642
HEad  -35.2429 -6.24607 -0.674756
LeftShoulder1  1.33273 -10.083 -1.55443
LeftArm  -32.8277 -65.6762 -25.5086
LeftForeArm  -12.2734 -9.59015 0.875986
LeftHand  -0.0224186 5.75116 2.2282
RightShoulder  0.896025 3.23284 5.55415
RightArm  -24.7195 56.4334 34.3071
RightForeArm  -22.1375 18.2761 2.91785
RightHand  -0.985147 9.08376 -8.27486
LeftUpLeg  -17.9755 3.73674 7.19613
LeftLeg  29.2014 -4.4361 -2.3422
LeftFoot  -7.30761 0.232544 -5.36759
LeftToes  -1.45701e-009 4.75788e-011 -4.21586e-011
1415
root  -51.3107 39.2279 8.91591 -59.6172 -86.0128 58.1224
RightUpLeg  -20.1399 -12.4931 -8.07708
RightLeg  21.5653 9.47579 3.90119
RightFoot  1.61226 -0.259007 2.37776
RightToes  1.33877e-009 0 -3.6325e-017
Spine  27.7242 -5.40845 7.98218
Spine1  2.0538 -2.7062 -5.89251
HEad  -34.9485 -5.71504 -1.79966
LeftShoulder1  1.5052 -9.21256 -3.85891
LeftArm  -30.4604 -62.367 -29.9643
LeftForeArm  -9.02183 -12.6531 0.227878
LeftHand  -0.0410165 4.78112 3.43016
RightShoulder  0.9118 2.27328 8.34346
RightArm  -18.406 51.049 40.522
RightForeArm  -17.8493 21.3272 4.9348
RightHand  -0.941661 9.57224 -7.66504
LeftUpLeg  -15.3252 2.55379 8.4038
LeftLeg  30.5662 -3.88765 -2.13687
LeftFoot  -9.02822 0.148999 -4.72092
LeftToes  -1.45701e-009 4.75788e-011 -4.21586e-011
1416
root  -51.1895 39.1659 9.40761 -72.3157 -86.6483 69.6033
RightUpLeg  -19.0142 -11.9499 -8.73902
RightLeg  21.217 10.0909 4.0824
RightFoot  1.93952 -0.340668 3.04025
RightToes  1.33877e-009 0 -3.6325e-017
Spine  26.3104 -5.25838 7.59202
Spine1  3.25038 -2.6562 -5.52336
HEad  -34.9665 -5.37369 -2.744
LeftShoulder1  1.60592 -8.26615 -5.87106
LeftArm  -30.0826 -58.6761 -33.2658
LeftForeArm  -3.80469 -15.5233 -0.832419
LeftHand  -0.0680025 4.17368 4.77725
RightShoulder  0.870475 1.13418 11.782
RightArm  -9.20793 45.6667 44.0263
RightForeArm  -18.4888 22.2259 5.48602
RightHand  -1.08845 9.67202 -8.75228
LeftUpLeg  -12.1759 1.45744 9.47322
LeftLeg  31.5305 -4.17909 -2.4221
LeftFoot  -11.0346 0.0783316 -4.52442
LeftToes  -1.45701e-009 4.75788e-011 -4.21586e-011
1417
root  -51.0186 39.0543 9.96875 -82.6235 -86.8747 79.1124
RightUpLeg  -18.5272 -11.5254 -9.58631
RightLeg  21.1401 10.4579 4.19139
RightFoot  2.20475 -0.435116 3.78555
RightToes  1.33877e-009 0 -3.6325e-017
Spine  24.9178 -5.35234 7.55593
Spine1  3.83579 -2.71999 -5.6568
HEad  -34.6845 -5.08306 -3.55317
LeftShoulder1  1.70192 -7.29901 -8.35235
LeftArm  -29.7268 -54.8373 -35.3759
LeftForeArm  1.79471 -17.8658 -2.08545
LeftHand  -0.0899807 3.87205 5.67419
RightShoulder  0.75888 -0.0303745 15.0117
RightArm  -0.415345 39.7105 46.2188
RightForeArm  -18.49 20.7238 5.28562
RightHand  -1.03352 9.12858 -8.61903
LeftUpLeg  -9.72373 0.185908 10.1254
LeftLeg  32.4292 -5.18409 -3.19336
LeftFoot  -13.1717 0.00218686 -4.71837
LeftToes  -1.45701e-009 4.75788e-011 -4.21586e-011
